<svg id="Capa_1" enable-background="new 0 0 512 512" height="512" viewBox="0 0 512 512" width="512" xmlns="http://www.w3.org/2000/svg"><g><path d="m402.261 272.294-71.647-25.81c32.323-23.262 53.413-61.199 53.413-103.974v-14.483c0-70.594-57.432-128.027-128.027-128.027-70.594 0-128.027 57.433-128.027 128.027v14.483c0 43.147 21.457 81.374 54.258 104.58l-71.761 25.471c-65.679 23.312-109.808 85.801-109.808 155.495v83.944h510.676v-84.472c0-69.346-43.835-131.731-109.077-155.234zm-84.102-220.01c-17.419 14.265-39.407 22.248-62.159 22.248s-44.74-7.983-62.159-22.248c16.928-13.917 38.584-22.284 62.159-22.284s45.231 8.367 62.159 22.284zm-160.186 90.226v-14.483c0-19.672 5.829-38.005 15.844-53.374 22.902 19.148 52.028 29.879 82.182 29.879 30.155 0 59.281-10.731 82.183-29.879 10.015 15.368 15.844 33.702 15.844 53.374v14.483c0 54.052-43.975 98.027-98.027 98.027-54.051 0-98.026-43.975-98.026-98.027zm98.027 128.027c13.003 0 25.557-1.955 37.391-5.575l34.299 12.356-71.746 68.468-71.618-67.606 35.891-12.739c11.361 3.312 23.367 5.096 35.783 5.096zm225.338 211.463h-69.171v-56.692h-30v56.692h-251.009v-56.692h-30v56.692h-70.496v-53.944c0-57.022 36.105-108.15 89.844-127.224l32.059-11.379 103.491 97.694 103.179-98.465 32.858 11.837c53.38 19.23 89.245 70.271 89.245 127.01z"/></g></svg>