<?xml version="1.0" encoding="utf-8"?>
<!-- Svg Vector Icons : http://www.onlinewebfonts.com/icon -->
<!DOCTYPE svg PUBLIC "-//W3C//DTD SVG 1.1//EN" "http://www.w3.org/Graphics/SVG/1.1/DTD/svg11.dtd">
<svg version="1.1" xmlns="http://www.w3.org/2000/svg" xmlns:xlink="http://www.w3.org/1999/xlink" x="0px" y="0px" viewBox="0 0 1000 1000" enable-background="new 0 0 1000 1000" xml:space="preserve">
<g><path d="M500,10C229.4,10,10,229.4,10,500c0,270.6,219.4,490,490,490c270.6,0,490-219.4,490-490C990,229.4,770.6,10,500,10z M500,967.9C241.6,967.9,32.1,758.4,32.1,500C32.1,241.6,241.6,32.1,500,32.1c258.4,0,467.9,209.5,467.9,467.9C967.9,758.4,758.4,967.9,500,967.9z M502.8,633.2l-248.3-247l16.7-16.6l231.6,230.3l231.6-230.3l16.7,16.6L502.8,633.2z"/></g>
</svg>
