<svg height='300px' width='300px' class="icon-error" fill="#000000" xmlns="http://www.w3.org/2000/svg" xmlns:xlink="http://www.w3.org/1999/xlink" viewBox="0 0 24 24" version="1.1" x="0px" y="0px"><title>Artboard 7 Copy 3</title><desc>Created with Sketch.</desc><g stroke="none" stroke-width="1" fill="none" fill-rule="evenodd"><g fill-rule="nonzero" fill="#000000"><path d="M12,22 C6.4771525,22 2,17.5228475 2,12 C2,6.4771525 6.4771525,2 12,2 C17.5228475,2 22,6.4771525 22,12 C22,17.5228475 17.5228475,22 12,22 Z M12,21.5 C17.2467051,21.5 21.5,17.2467051 21.5,12 C21.5,6.75329488 17.2467051,2.5 12,2.5 C6.75329488,2.5 2.5,6.75329488 2.5,12 C2.5,17.2467051 6.75329488,21.5 12,21.5 Z M15.7123106,7.93413601 L16.065864,8.2876894 L8.2876894,16.065864 L7.93413601,15.7123106 L15.7123106,7.93413601 Z M8.2876894,7.93413601 L16.065864,15.7123106 L15.7123106,16.065864 L7.93413601,8.2876894 L8.2876894,7.93413601 Z"></path></g></g></svg>
