<svg height='300px' width='300px' class="icon-success" fill="#000000" xmlns="http://www.w3.org/2000/svg" xmlns:xlink="http://www.w3.org/1999/xlink" version="1.1" x="0px" y="0px" viewBox="0 0 32 32" enable-background="new 0 0 32 32" xml:space="preserve"><g display="none"><rect x="-180" y="-52.5" display="inline" fill="#000000" width="430" height="210.5"></rect></g><g><g><path d="M16,32c8.837,0,16-7.163,16-16S24.837,0,16,0S0,7.163,0,16S7.163,32,16,32z M16,1c8.271,0,15,6.729,15,15    c0,8.271-6.729,15-15,15C7.729,31,1,24.271,1,16C1,7.729,7.729,1,16,1z"></path><polygon points="23.383,10.404 22.639,9.735 13.251,20.166 9.295,16.21 8.588,16.917 13.29,21.619   "></polygon></g></g><g display="none"><g display="inline"><path d="M2.489,24.408c3.264,5.024,9.248,7.784,15.185,7.237c8.093-0.745,14.147-7.526,14.323-15.572    C31.693,2.144,14.136-5.149,4.312,5.084C-0.656,10.26-1.418,18.396,2.489,24.408z M14.248,0.796    c9.059-1.174,16.576,6.257,16.769,15.082c-0.166,7.587-5.633,14.283-13.305,15.277C8.785,32.312,0.942,24.911,0.942,16.073    C0.942,8.497,6.685,1.776,14.248,0.796z"></path><path d="M12.951,20.747c0.128,0.128,0.662,0.353,0.822,0.175c3.151-3.5,6.302-7,9.453-10.499c0.204-0.227-0.696-0.609-0.884-0.4    c-3.049,3.386-6.098,6.773-9.147,10.159c-1.229-1.228-2.457-2.456-3.686-3.684c-0.184-0.184-1.13-0.32-0.76,0.05    C10.15,17.947,11.55,19.347,12.951,20.747z"></path></g></g><g display="none"><g display="inline"><path d="M16,32c8.837,0,16-7.163,16-16S24.837,0,16,0S0,7.163,0,16S7.163,32,16,32z M16,2c7.72,0,14,6.28,14,14    c0,7.72-6.28,14-14,14C8.28,30,2,23.72,2,16C2,8.28,8.28,2,16,2z"></path><polygon points="23.754,10.738 22.268,9.4 13.232,19.44 9.648,15.856 8.234,17.271 13.309,22.345   "></polygon></g></g><g display="none"><g display="inline"><path d="M16,32c8.837,0,16-7.163,16-16S24.837,0,16,0S0,7.163,0,16S7.163,32,16,32z M16,0.5c8.547,0,15.5,6.953,15.5,15.5    c0,8.547-6.953,15.5-15.5,15.5C7.453,31.5,0.5,24.547,0.5,16C0.5,7.453,7.453,0.5,16,0.5z"></path><polygon points="23.196,10.236 22.825,9.902 13.261,20.529 9.118,16.387 8.765,16.74 13.28,21.256   "></polygon></g></g></svg>
