<?xml version="1.0" encoding="UTF-8" standalone="no"?>
<svg
   xmlns:dc="http://purl.org/dc/elements/1.1/"
   xmlns:cc="http://creativecommons.org/ns#"
   xmlns:rdf="http://www.w3.org/1999/02/22-rdf-syntax-ns#"
   xmlns:svg="http://www.w3.org/2000/svg"
   xmlns="http://www.w3.org/2000/svg"
   xmlns:sodipodi="http://sodipodi.sourceforge.net/DTD/sodipodi-0.dtd"
   xmlns:inkscape="http://www.inkscape.org/namespaces/inkscape"
   inkscape:version="1.0beta2 (2b71d25, 2019-12-03)"
   sodipodi:docname="icon-youtube.svg"
   id="svg12"
   version="1.1"
   viewBox="0 0 24 24">
  <metadata
     id="metadata18">
    <rdf:RDF>
      <cc:Work
         rdf:about="">
        <dc:format>image/svg+xml</dc:format>
        <dc:type
           rdf:resource="http://purl.org/dc/dcmitype/StillImage" />
      </cc:Work>
    </rdf:RDF>
  </metadata>
  <defs
     id="defs16" />
  <sodipodi:namedview
     inkscape:current-layer="svg12"
     inkscape:window-maximized="0"
     inkscape:window-y="23"
     inkscape:window-x="1440"
     inkscape:cy="12"
     inkscape:cx="10.794436"
     inkscape:zoom="26.958333"
     showgrid="false"
     id="namedview14"
     inkscape:window-height="1035"
     inkscape:window-width="1920"
     inkscape:pageshadow="2"
     inkscape:pageopacity="0"
     guidetolerance="10"
     gridtolerance="10"
     objecttolerance="10"
     borderopacity="1"
     inkscape:document-rotation="0"
     bordercolor="#666666"
     pagecolor="#ffffff" />
  <path
     style="fill:#ffffff;fill-opacity:1"
     id="path10"
     d="M 12 4 C 9.102 4 6.53075 4.3255 4.96875 4.5625 C 3.67775 4.7585 2.64325 5.75375 2.40625 7.09375 C 2.20325 8.23475 2 9.91 2 12 C 2 14.089 2.20325 15.76525 2.40625 16.90625 C 2.64425 18.24625 3.67775 19.2425 4.96875 19.4375 C 6.53575 19.6745 9.118 20 12 20 C 14.882 20 17.46325 19.6745 19.03125 19.4375 C 20.32325 19.2425 21.35675 18.24725 21.59375 16.90625 C 21.79575 15.76425 22 14.084 22 12 C 22 9.915 21.79675 8.23575 21.59375 7.09375 C 21.35675 5.75375 20.32225 4.7585 19.03125 4.5625 C 17.46925 4.3255 14.897 4 12 4 z M 12 6 C 14.643 6 17.0085 6.2205 18.4375 6.4375 C 19.0525 6.5305 19.514 7.02625 19.625 7.65625 C 19.803 8.65625 20 10.13 20 12 C 20 13.869 19.802 15.34375 19.625 16.34375 C 19.513 16.97475 19.0535 17.4695 18.4375 17.5625 C 17.0025 17.7795 14.627 18 12 18 C 9.372 18 6.9965 17.7795 5.5625 17.5625 C 4.9475 17.4695 4.45575 16.97375 4.34375 16.34375 C 4.16675 15.34575 4 13.875 4 12 C 4 10.124 4.16675 8.65425 4.34375 7.65625 C 4.45575 7.02625 4.9475 6.5305 5.5625 6.4375 C 6.9915 6.2205 9.357 6 12 6 z M 9 8 L 9 16 L 16 12 L 9 8 z" />
</svg>
