<svg height="512" viewBox="0 0 62 62" width="512" xmlns="http://www.w3.org/2000/svg">
    <g id="Page-1" fill="none" fill-rule="evenodd">
        <g id="015---User-Network" fill="rgb(0,0,0)" fill-rule="nonzero">
            <path id="Shape"
                d="m52 19c4.2128252.0106922 7.8723627-2.8952893 8.816427-7.000987.9440644-4.10569761-1.0786363-8.31825324-4.8730181-10.14873868-3.7943819-1.83048543-8.3504532-.79166046-10.9763244 2.50270006s-2.6225856 7.96736082.0079155 11.25802562l-1.287 1.289c-7.1981758-6.5305656-18.1778242-6.5305656-25.376 0l-1.287-1.287c2.9900716-3.7405176 2.5372483-9.1653412-1.0315835-12.358371-3.5688319-3.1930298-9.0104245-3.04193348-12.39657274.34421476-3.38614824 3.38614824-3.53724456 8.82774084-.34421476 12.39657274 3.1930298 3.5688318 8.6178534 4.0216551 12.358371 1.0315835l1.289 1.285c-6.5305656 7.1981758-6.5305656 18.1778242 0 25.376l-1.287 1.287c-3.7405176-2.9900716-9.1653412-2.5372483-12.358371 1.0315835-3.1930298 3.5688319-3.04193348 9.0104245.34421476 12.3965727 3.38614824 3.3861483 8.82774084 3.5372446 12.39657274.3442148 3.5688318-3.1930298 4.0216551-8.6178534 1.0315835-12.358371l1.285-1.289c7.1981758 6.5305656 18.1778242 6.5305656 25.376 0l1.287 1.287c-2.9900716 3.7405176-2.5372483 9.1653412 1.0315835 12.358371 3.5688319 3.1930298 9.0104245 3.0419335 12.3965727-.3442148 3.3861483-3.3861482 3.5372446-8.8277408.3442148-12.3965727-3.1930298-3.5688318-8.6178534-4.0216551-12.358371-1.0315835l-1.289-1.285c6.5305656-7.1981758 6.5305656-18.1778242 0-25.376l1.287-1.287c1.5909147 1.2793701 3.571482 1.976256 5.613 1.975zm-3-2.685v-.315c0-1.6568542 1.3431458-3 3-3s3 1.3431458 3 3v.315c-1.895733.9133103-4.104267.9133103-6 0zm1-7.315c0-1.1045695.8954305-2 2-2s2 .8954305 2 2-.8954305 2-2 2-2-.8954305-2-2zm2-6c2.8446685-.00390636 5.4082968 1.71551731 6.4841344 4.3489044 1.0758377 2.63338709.4495194 5.6560239-1.5841344 7.6450956-.1988619-.9598136-.6728066-1.8409894-1.364-2.536-.227564-.2224731-.475294-.4233353-.74-.6 1.1649235-1.1358794 1.5257483-2.86419156.9126056-4.37128304-.6131428-1.50709149-2.0780626-2.49262055-3.7051056-2.49262055s-3.0919628.98552906-3.7051056 2.49262055c-.6131427 1.50709148-.2523179 3.23540364.9126056 4.37128304-1.0855983.7292439-1.8431632 1.8539282-2.111 3.134-2.0322002-1.9892785-2.6575865-5.01097483-1.5819334-7.64347112 1.0756531-2.6324963 3.6381583-4.35160188 6.4819334-4.34852888zm-49 7c.0004539-3.17679274 2.14011366-5.95496472 5.21146102-6.76665294 3.07134738-.81168821 6.30419418.5466508 7.87408148 3.30843759 1.5698872 2.76178679 1.0831413 6.23446035-1.1855425 8.45821535-.1981851-.9603505-.672214-1.8420305-1.364-2.537-.227564-.2224731-.475294-.4233353-.74-.6 1.1649235-1.1358794 1.5257483-2.86419156.9126056-4.37128304-.6131428-1.50709149-2.0780626-2.49262055-3.7051056-2.49262055-1.62704297 0-3.09196277.98552906-3.70510555 2.49262055-.61314279 1.50709148-.252318 3.23540364.91260555 4.37128304-1.08209339.7320091-1.8355993 1.8576034-2.1 3.137-1.34973649-1.3133895-2.11109851-3.1167102-2.111-5zm5-1c0-1.1045695.8954305-2 2-2s2 .8954305 2 2-.8954305 2-2 2-2-.8954305-2-2zm-1 7.315v-.315c0-1.6568542 1.34314575-3 3-3 1.6568542 0 3 1.3431458 3 3v.315c-1.895733.9133103-4.10426697.9133103-6 0zm0 42v-.315c0-1.6568542 1.34314575-3 3-3 1.6568542 0 3 1.3431458 3 3v.315c-1.895733.9133103-4.10426697.9133103-6 0zm1-7.315c0-1.1045695.8954305-2 2-2s2 .8954305 2 2-.8954305 2-2 2-2-.8954305-2-2zm6.9 6c-.1981851-.9603505-.672214-1.8420305-1.364-2.537-.227564-.2224731-.475294-.4233353-.74-.6 1.1649235-1.1358794 1.5257483-2.8641916.9126056-4.371283-.6131428-1.5070915-2.0780626-2.4926206-3.7051056-2.4926206-1.62704297 0-3.09196277.9855291-3.70510555 2.4926206-.61314279 1.5070914-.252318 3.2354036.91260555 4.371283-1.08209339.7320091-1.8355993 1.8576034-2.1 3.137-2.03419938-1.9895329-2.66169901-5.0124396-1.58742469-7.6472343s3.63654099-4.3571508 6.48192469-4.3571508 5.4076504 1.7223561 6.4819247 4.3571508.4467747 5.6577014-1.5874247 7.6472343zm8.231-10.942c.3843684-1.5680895 1.6737488-2.7513691 3.269-3 .9011097 1.7026087 2.6696368 2.767556 4.596 2.767556s3.6948903-1.0649473 4.596-2.767556c1.5969406.2449254 2.8897502 1.4264831 3.277 2.995-4.9276548 2.5960617-10.8183452 2.5960617-15.746 0zm2.344-17.938c-2.193-1.184-2.5-4.418-2.471-6.386 1.9994135.8965553 4.1756912 1.3293495 6.366 1.266.713 0 1.406-.029 2.072-.056 3.392-.143 4.918-.1 5.584 2.32.214844 1.0627578-.0488588 2.1662132-.721 3.017-.2930284.2832513-.3848454.7159915-.232084 1.0938286.1527613.3778372.5195341.6251673.927084.6251714.5522847 0 1 .4477153 1 1s-.4477153 1-1 1-1 .4477153-1 1c0 2.206-2.243 4-5 4s-5-1.794-5-4c0-.5522847-.4477153-1-1-1s-1-.4477153-1-1 .4477153-1 1-1c.457945.0000121.8573801-.3110456.9695591-.7550383s-.0915675-.9074499-.4945591-1.1249617zm4.264 10.78c.8354845.1320068 1.6865155.1320068 2.522 0 .2706489 1.1878934.7983633 2.3020328 1.546 3.264-.5649892 1.0211572-1.6399633 1.6549337-2.807 1.6549337s-2.2420108-.6337765-2.807-1.6549337c.7472485-.962206 1.2749203-2.0762557 1.546-3.264zm19.261 19.415v-.315c0-1.6568542 1.3431458-3 3-3s3 1.3431458 3 3v.315c-1.895733.9133103-4.104267.9133103-6 0zm1-7.315c0-1.1045695.8954305-2 2-2s2 .8954305 2 2-.8954305 2-2 2-2-.8954305-2-2zm2-6c2.8446685-.0039064 5.4082968 1.7155173 6.4841344 4.3489044 1.0758377 2.6333871.4495194 5.6560239-1.5841344 7.6450956-.1988619-.9598136-.6728066-1.8409894-1.364-2.536-.227564-.2224731-.475294-.4233353-.74-.6 1.1649235-1.1358794 1.5257483-2.8641916.9126056-4.371283-.6131428-1.5070915-2.0780626-2.4926206-3.7051056-2.4926206s-3.0919628.9855291-3.7051056 2.4926206c-.6131427 1.5070914-.2523179 3.2354036.9126056 4.371283-1.0855983.7292439-1.8431632 1.8539282-2.111 3.134-2.0322002-1.9892785-2.6575865-5.0109748-1.5819334-7.6434711s3.6381583-4.3516019 6.4819334-4.3485289zm-11.357-.015c-.8013447-2.2185138-2.8223215-3.7663797-5.173-3.962-.637636-.7789021-1.0802236-1.6987026-1.291-2.683 1.9268773-.7675805 3.3371521-2.4545714 3.751-4.487 1.1169456-.3643727 1.9183976-1.3472086 2.0505503-2.5146291.1321527-1.1674204-.4293191-2.3045402-1.4365503-2.9093709.5824181-1.1401539.7285666-2.4537124.411-3.694-1.115-4.059-4.409-3.92-7.6-3.79-.638.027-1.3.055-1.988.055-4.657 0-6.54-1.706-6.55-1.714-.2687502-.2631631-.6624407-.3532589-1.018897-.2331739-.3564562.120085-.6153766.4300361-.670103.8021739-.04.27-.814 5.839 1.921 8.866-.8245043.7048898-1.2042683 1.7999666-.9932067 2.8639825.2110617 1.064016.9800697 1.9312186 2.0112067 2.2680175.4138479 2.0324286 1.8241227 3.7194195 3.751 4.487-.2107764.9842974-.653364 1.9040979-1.291 2.683-2.3506785.1956203-4.3716553 1.7434862-5.173 3.962-6.1303702-4.2223762-8.8007682-11.9419741-6.5898004-19.0498234 2.2109677-7.1078493 8.7890178-11.9506248 16.2328004-11.9506248s14.0218327 4.8427755 16.2328004 11.9506248c2.2109678 7.1078493-.4594302 14.8274472-6.5898004 19.0498234z" />
        </g>
    </g>
</svg>