<svg id="Capa_1" data-name="Capa 1" xmlns="http://www.w3.org/2000/svg" viewBox="0 0 394.03 38.25"><title>eldiariomontanes</title><path d="M31.91,28.54H29.66l-2.44,8H17.15c-4.58,0-4.89-.31-5-2.34C12,32.54,12,22.15,12,19.49c1.58,0,7,0,7.58.47s.66,1.56,1,5.92h2.34c-.05-3.27-.2-5.61-.2-8.21,0-2.08.1-4.1.15-6H20.65c-.15,4.1-.56,5.66-1.32,6.08-.56.31-3.71.42-7.32.42V3h7.88c1.43,0,4.94,0,6.26.62s1.32,1.87,1.58,5.72h2.45V1.51c-2.24,0-15.74.15-18.18.15-5.6,0-8.4-.1-11.31-.15V3.18l3.81.16c.15,3.43.15,5.35.15,22.92,0,6.65-.05,7.33-.15,10.08l-3.81.11V38.1c2.39,0,12.48-.1,15.63-.1H31.19Z" transform="translate(-0.69 -0.68)"/><path d="M63.13,27.91H60.79L58,36.23c-1.63.05-3.55.21-5.13.21-7.18,0-7.79-.41-8.1-2.91-.1-.88-.1-8.63-.1-16.06,0-6.29.05-12.42.1-14.14l4.11-.16V1.51c-1.38,0-3.36.1-7.74.1s-6.37-.1-7.79-.1V3.18l3.81.16c.15,3.43.15,5.35.15,22.92,0,6.65-.05,7.33-.15,10.08l-3.81.1V38.1C36,38,41.74,38,47.6,38s11.76.05,14.57.1Z" transform="translate(-0.69 -0.68)"/><path d="M101.87,20.12c0,10-5.63,16.63-13.57,16.63-4.74,0-5.6-.31-5.6-2.81-.05-10.45-.05-11.64-.05-16.63,0-1.61.05-13.51.15-13.88.2-.57,1.37-.78,2.49-.78,10.49,0,16.58,6.44,16.58,17.46M71.58,36.44V38.1C73.87,38,75.8,38,78.76,38c1.37,0,8,.11,10.54.11,10.59,0,19.92-5.93,19.92-18.5,0-11.9-8.87-18.4-20-18.4-2.5,0-14.87.41-17.67.41V3.17l3.55.16c.15,3.43.15,5.35.15,22.92,0,6.65-.05,7.33-.15,10.08Z" transform="translate(-0.69 -0.68)"/><path d="M121.35,36.33c-.1-3.43-.1-5.41-.1-23,0-6.6,0-7.27.1-10l3.55-.16V1.51c-1.32,0-3.36.1-7.33.1s-6-.1-7.33-.1V3.18l3.5.16c.15,3.43.15,5.35.15,22.92,0,6.65-.05,7.33-.15,10.08l-3.5.11V38.1c1.32,0,3.41-.11,7.33-.11s6,.11,7.33.11V36.44Z" transform="translate(-0.69 -0.68)"/><path d="M136.52,23.34c-.71,0-.92-.16-.92-.31a4.37,4.37,0,0,1,.2-.73l4.07-10.91c.15-.31.2-.57.31-.57s.25.26.3.47l4,11a2.12,2.12,0,0,1,.2.67c0,.16-.25.31-.61.37Zm23.55,13a2.34,2.34,0,0,1-2.29-1.14c-.56-1.09-1.37-2.81-2.09-4.63L143.83.68H142l-7.08,18.87c-1,2.6-5.65,14.24-6.27,15.43-.51,1-.92,1.25-2.6,1.4v1.77c1-.05,2.76-.16,4.54-.16,1.58,0,3.16.11,4.58.16V36.49c-3.82-.05-4.18-.26-4.18-.83a8.31,8.31,0,0,1,.46-1.56l3.1-8.37c.31-.78.46-.93,1.12-.93h8.76c.92,0,1,0,1.32.78l3.31,9a4.23,4.23,0,0,1,.36,1.3c0,.26-.36.52-4.58.62v1.66c4-.11,5.7-.16,7.59-.16,2.75,0,5.42.05,7.66.16Z" transform="translate(-0.69 -0.68)"/><path d="M172.59,36.33c-.1-3.27-.1-4.52-.1-15.9,1.83-.05,1.82.21,2.79,1.87,3.56,6,7.18,12.11,10.34,15.8,1.73-.05,5-.11,9.08-.11V36.44c-2.34-.16-2.7-.62-5.65-5.09-3.62-5.51-7.18-11.17-7.18-11.33s.26-.16.56-.31c.76-.47,7.09-2.59,7.09-8.67,0-4.83-4.15-9.78-11.33-9.78-.76,0-3.11.11-5.4.16s-4.69.21-5.55.21c-2.09,0-4.23-.05-5.76-.1V3.12l3.51.21c.15,3.43.15,5.35.15,22.92,0,6.65-.05,7.33-.15,10.08l-3.51.11V38.1c1.38,0,3.41-.11,7.49-.11s6.11.11,7.44.11V36.44Zm-.1-17.56V6.3c0-3.28.25-3.43,2.39-3.43,6.11,0,7.88,4.84,7.88,8.48s-1.48,7.42-5.86,7.42Z" transform="translate(-0.69 -0.68)"/><path d="M206.91,36.33c-.1-3.43-.1-5.41-.1-23,0-6.6,0-7.27.1-10l3.55-.16V1.51c-1.32,0-3.36.1-7.33.1s-6-.1-7.33-.1V3.18L199.3,3c.15,3.43.15,5.35.15,22.92,0,6.65-.05,7.64-.15,10.39l-3.5.11V38.1c1.32,0,3.41-.11,7.33-.11s6,.11,7.33.11V36.44Z" transform="translate(-0.69 -0.68)"/><path d="M217.72,19.86c0-14.86,8.15-17.46,12-17.46,7.74,0,11.46,8.93,11.46,17s-3.51,17.77-11.46,17.77c-6.42,0-12-7-12-17.35m-7.56.21c0,11.54,8.89,18.86,19.38,18.86,12.53,0,19.22-10.29,19.22-19.54,0-11-7.87-18.71-19-18.71-10.9,0-19.58,8.05-19.58,19.38" transform="translate(-0.69 -0.68)"/><path d="M388.44,37.81c3.69,0,6.28-1.9,6.28-5.3v0c0-3-2-4.23-5.42-5.13-3-.76-3.69-1.12-3.69-2.25v0c0-.83.76-1.49,2.2-1.49a8,8,0,0,1,4.45,1.69l2-2.83a9.89,9.89,0,0,0-6.35-2.17c-3.49,0-6,2.05-6,5.15v0c0,3.4,2.22,4.35,5.67,5.23,2.86.73,3.45,1.22,3.45,2.17v0c0,1-.93,1.61-2.47,1.61a7.84,7.84,0,0,1-5.11-2.08l-2.22,2.66a10.88,10.88,0,0,0,7.25,2.73m-17-18.68h2.83l3.32-2.44-3.2-1.39Zm-5,18.44h13V34.23h-9.28V30.63h8.06V27.29h-8.06V23.82h9.16V20.48h-12.9Zm-9-18.44c1.71,0,2.49-1.32,3.05-3.37l-2-.61c-.34.78-.66,1.2-1.42,1.2a4.57,4.57,0,0,1-1.44-.39,6.89,6.89,0,0,0-2.37-.56c-1.71,0-2.49,1.32-3.05,3.37l2,.61c.34-.78.66-1.2,1.42-1.2a4.58,4.58,0,0,1,1.44.39,6.87,6.87,0,0,0,2.37.56m-9.8,18.44h3.71V26.7l8.28,10.87h3.2V20.48h-3.71V31l-8-10.53h-3.46Zm-13.53-7.15,2.27-5.55,2.27,5.55Zm-6.74,7.15h3.84l1.56-3.84H340l1.56,3.84h3.93l-7.33-17.22h-3.47Zm-7.7,0h3.76V23.94h5.21V20.48H314.49v3.46h5.2Zm-22.79,0h3.71V26.7l8.28,10.87h3.2V20.48h-3.71V31l-8-10.53h-3.46ZM285,34.4A5.2,5.2,0,0,1,279.8,29v0a5.11,5.11,0,0,1,5.13-5.33A5.19,5.19,0,0,1,290.11,29v0A5.11,5.11,0,0,1,285,34.4m0,3.46A8.84,8.84,0,0,0,294,29v0a9.09,9.09,0,0,0-18.17,0v0a8.76,8.76,0,0,0,9.06,8.79m-29-.29h3.68V26.48l4.77,7.23h.1l4.81-7.3V37.57H273V20.48H269l-4.5,7.23L260,20.48h-4.05Z" transform="translate(-0.69 -0.68)"/></svg>